inDegrees=no
num_controls=7
num_derivatives=13
num_iterations=171
num_multipliers=7
num_parameters=0
num_slacks=7
num_states=26
objective=5.078152
objective_accelerations=0.401623
objective_balance=0.040869
objective_effort=0.198172
objective_height=4.330895
objective_ligament=0.106593
solver_duration=1881.495054
status=Solve_Succeeded
success=true
DataType=double
version=3
OpenSimVersion=4.4-2022-07-23-0e9fedc
endheader
time	/jointset/ground_pelvis/pelvis_tilt/value	/jointset/ground_pelvis/pelvis_tx/value	/jointset/ground_pelvis/pelvis_ty/value	/jointset/hip_l/hip_flexion_l/value	/jointset/hip_l/hip_adduction_l/value	/jointset/hip_l/hip_rotation_l/value	/jointset/back/lumbar_extension/value	/jointset/patellofemoral_l/patellar_flexion_l/value	/jointset/knee_l/knee_flexion_l/value	/jointset/knee_l/knee_adduction_l/value	/jointset/knee_l/knee_rotation_l/value	/jointset/ankle_l/ankle_angle_l/value	/jointset/subtalar_l/subtalar_angle_l/value	/jointset/ground_pelvis/pelvis_tilt/speed	/jointset/ground_pelvis/pelvis_tx/speed	/jointset/ground_pelvis/pelvis_ty/speed	/jointset/hip_l/hip_flexion_l/speed	/jointset/hip_l/hip_adduction_l/speed	/jointset/hip_l/hip_rotation_l/speed	/jointset/back/lumbar_extension/speed	/jointset/patellofemoral_l/patellar_flexion_l/speed	/jointset/knee_l/knee_flexion_l/speed	/jointset/knee_l/knee_adduction_l/speed	/jointset/knee_l/knee_rotation_l/speed	/jointset/ankle_l/ankle_angle_l/speed	/jointset/subtalar_l/subtalar_angle_l/speed	/forceset/tau_hip_flexion_l	/forceset/tau_hip_adduction_l	/forceset/tau_hip_rotation_l	/forceset/tau_knee_flexion_l	/forceset/tau_ankle_angle_l	/forceset/tau_subtalar_angle_l	/forceset/tau_lumbar_extension	lambda_cid13_p0	lambda_cid13_p1	lambda_cid13_p2	lambda_cid13_p3	lambda_cid13_p4	lambda_cid13_p5	lambda_cid14_p0	/jointset/ground_pelvis/pelvis_tilt/accel	/jointset/ground_pelvis/pelvis_tx/accel	/jointset/ground_pelvis/pelvis_ty/accel	/jointset/hip_l/hip_flexion_l/accel	/jointset/hip_l/hip_adduction_l/accel	/jointset/hip_l/hip_rotation_l/accel	/jointset/back/lumbar_extension/accel	/jointset/patellofemoral_l/patellar_flexion_l/accel	/jointset/knee_l/knee_flexion_l/accel	/jointset/knee_l/knee_adduction_l/accel	/jointset/knee_l/knee_rotation_l/accel	/jointset/ankle_l/ankle_angle_l/accel	/jointset/subtalar_l/subtalar_angle_l/accel	gamma_cid13_p0	gamma_cid13_p1	gamma_cid13_p2	gamma_cid13_p3	gamma_cid13_p4	gamma_cid13_p5	gamma_cid14_p0
0.5	-0.275182204182948	-0.00358421594192163	0.8073585426518832	0.8547147261435694	-0.4274270447450465	-0.308923969597378	-0.2495201178769945	0.6221816433711139	0.6221816433711257	-0.1577857319623457	-0.1739283831640258	0.07764489859346241	-0.03688128778685776	-0.6149343194045658	-0.1628710992429226	-0.3328078807156569	1.816442588507614	-0.2184519552373905	0.6482896325136402	-0.1430515884002198	1.487622638112568	1.487622638112569	0.02589944959901369	-0.008460851708850929	0.398155972931734	-0.04482785840600921	-0.1418489230749295	0.02151331289827031	-0.01034141310396193	-0.1846084734687573	0.0348412105268251	0.04718077162634886	0.1493258066313576	-22.33974701012334	-21.06520262843038	8.146681761243538	-1.39635589431615	-532.4959781525707	-73.96958141202187	-34.04132558776487	0.4120249276770339	0.3528182100102359	-0.2489834311359179	-0.963162588716879	0.5599631720959941	-0.136916807952131	0.9529294133439407	-0.9876418534407077	-0.9876418534407138	-0.1016845247677224	0.09547488364423561	-0.2467363956807092	0.4558846648664608	-6.226887480186107e-08	-8.327094899160548e-07	4.890799631624712e-09	-1.914735012715451e-07	-6.067596111787732e-08	-1.474082424087072e-07	-1.211282845538995e-07
0.51	-0.2813098609242097	-0.005195084930118599	0.8040186736742829	0.8728279470050707	-0.4295838637685866	-0.3024500687122143	-0.250903333195025	0.6370065722631775	0.6370065722631619	-0.1575322798820738	-0.1740097169296637	0.08161340219208554	-0.03730741784853955	-0.6105161873787095	-0.1592856798965837	-0.3350980777577764	1.805948521305216	-0.2128962428073536	0.6463990065983511	-0.1336007266368728	1.477162395062403	1.477162395062404	0.02479236912629152	-0.007807887565830478	0.3954870350727043	-0.0404045260143171	-0.1462162334202022	0.02269096877709822	-0.01020327013372875	-0.1862522054321155	0.03346809085502409	0.04796371412258113	0.1526703266320803	-22.8800648700939	-21.28017356067518	8.146166645989512	-1.307412222790969	-534.6394876571842	-73.87632272756949	-33.41126393994279	0.4688469098974547	0.3639191532986626	-0.2088743283817064	-1.130473979313372	0.5558200918264887	-0.2289542948093486	0.9397768429362233	-1.105303337909818	-1.105303337909854	-0.1151453768765888	0.04993956793141385	-0.2856556048162773	0.4347302478635233	-6.616863408057574e-08	-7.973502116253742e-07	1.458669310749789e-08	-1.82867258230578e-07	-6.054621294849763e-08	-1.415170456535962e-07	-1.19082974210953e-07
0.52	-0.2873909084312451	-0.006769596653581463	0.8006579354287352	0.8908286381558862	-0.4316846367051594	-0.2959978378484802	-0.2521923174384014	0.6517208811633084	0.6517208811632824	-0.1572898837202038	-0.1740845745762255	0.08555347978736244	-0.03768948004199626	-0.6056124725585675	-0.1555996462961013	-0.3369817343051517	1.793936646370329	-0.2072427378425739	0.6439556282233827	-0.1242053734692886	1.465498639728021	1.465498639728021	0.02368826591948608	-0.007165627890788297	0.392470772261588	-0.03601428476090435	-0.1505835437653979	0.02386862465600531	-0.01006512716345875	-0.1878959373954519	0.03209497118325597	0.0487466566189215	0.1560148466328236	-23.42773639982779	-21.49539726236916	8.147451551561209	-1.216632840353103	-536.9045044479712	-73.81577123766145	-32.77122798353864	0.5091414865341547	0.3729410608388737	-0.1676753321871032	-1.26672413521444	0.5795216790445878	-0.2474672998879087	0.9418276941912477	-1.228344310284163	-1.228344310284168	-0.1010890715843798	0.09333399004863849	-0.3162013860980704	0.4492664372105637	-7.030961236643788e-08	-7.644220565764335e-07	2.544401055282362e-08	-1.743308692945043e-07	-6.119962365267211e-08	-1.361201610088669e-07	-1.174502202495403e-07
0.53	-0.293420540315263	-0.008306804483413831	0.7972804125063397	0.9087017547293976	-0.4337284368420123	-0.2895726875331278	-0.2533877197999221	0.6663126093724976	0.6663126093724802	-0.1570585159228087	-0.1741529753190747	0.08946165411364208	-0.0380278646091808	-0.600234576350458	-0.151830417823731	-0.3384530750803629	1.780441929558585	-0.2015071114521024	0.6409826502998729	-0.1148964359379137	1.452654851890655	1.452654851890654	0.02258736090884606	-0.006518193340601343	0.3891064475602608	-0.03167474953834991	-0.1548821660964986	0.0249954094379361	-0.009942884322867643	-0.1894352183158304	0.03061647827884205	0.04945329328562276	0.1592716443845355	-24.00689938407599	-21.67130763213032	8.141714935212837	-1.054688099311314	-539.0889045713341	-73.70253299457029	-32.12377745995055	0.5640229890962383	0.3806050478624031	-0.1264094947778238	-1.427545554126464	0.572201211831848	-0.3360664745293567	0.9222262169254772	-1.34119523440066	-1.341195234400932	-0.1144049087478205	0.04992832710645582	-0.3552206227133123	0.4245945461542345	-7.517911608322239e-08	-7.167467918236822e-07	4.63591926644675e-08	-1.611424436941212e-07	-6.332579574003801e-08	-1.293592472385908e-07	-1.150094231487113e-07
